<svg xmlns="http://www.w3.org/2000/svg" width="90" height="90" viewBox="0 0 90 90" fill="none">
<circle cx="45" cy="45" r="45" fill="white"/>
<circle cx="44.875" cy="45" r="38.125" fill="black"/>
<g clip-path="url(#clip0_8761_137172)">
<path d="M39.057 41.0821C40.4376 39.4647 42.1148 38.3497 43.9834 37.5291C45.9908 36.6486 48.1131 36.2012 50.3023 36.3519C54.6951 36.6558 58.308 38.4789 61.038 42.0009C62.3898 43.7451 63.2774 45.6903 63.7129 47.8221C64.134 49.8797 64.0885 51.9422 63.5789 54.0166C62.9161 56.725 61.6026 59.0339 59.6263 60.9623C58.0304 62.5223 56.1451 63.6085 54.0132 64.3191C52.0106 64.9843 49.965 65.1924 47.9193 64.9221C44.6845 64.4938 41.842 63.1396 39.4997 60.8116C39.1169 60.4311 39.0905 60.1871 39.5212 59.8258C40.3538 59.1224 41.1506 58.3735 41.9497 57.6318C42.2416 57.359 42.4522 57.3662 42.7488 57.6533C44.249 59.1032 46.0171 59.9742 48.0987 60.3546C52.6471 61.1824 57.1739 58.4333 58.7985 54.3037C60.3872 50.2626 59.1645 45.6448 55.657 42.9172C53.3529 41.1252 50.7282 40.6155 47.9312 41.0199C45.9789 41.3022 44.2586 42.2186 42.8469 43.6255C42.4593 44.0107 42.2057 44.0059 41.8301 43.6446C40.9352 42.7856 40.0117 41.9578 39.0594 41.0821H39.057Z" fill="white"/>
<path d="M52.4102 29.6264C51.7833 30.2031 51.2258 30.7151 50.6683 31.2271C50.264 31.5979 49.8501 31.9616 49.4553 32.3444C49.1993 32.5909 49.0055 32.6531 48.7184 32.3516C47.79 31.3706 46.6703 30.672 45.4189 30.1696C43.5647 29.4231 41.6673 29.2963 39.715 29.6934C37.942 30.0547 36.4108 30.8634 35.0924 32.0884C33.9009 33.1962 32.963 34.4882 32.5323 36.0697C32.25 37.1105 31.9127 38.192 31.939 39.2471C31.9677 40.5248 32.183 41.8072 32.7142 43.0394C33.755 45.4464 35.4442 47.1547 37.7961 48.2385C41.452 49.9206 45.8377 49.0688 48.6011 46.2742C48.9744 45.8962 49.1969 45.9225 49.5606 46.279C50.319 47.0183 51.1205 47.7146 51.9197 48.4108C52.3001 48.7434 52.3288 48.9946 51.9388 49.3726C49.819 51.4351 47.3594 52.873 44.4117 53.2965C43.0048 53.4999 41.5501 53.6243 40.1432 53.4951C37.3893 53.2391 34.9178 52.1624 32.7573 50.4063C30.6015 48.6573 29.0559 46.4632 28.185 43.8481C27.5079 41.8 27.2279 39.6945 27.5509 37.5077C27.8045 35.7994 28.2352 34.1652 29.0439 32.6603C30.6996 29.5738 33.1209 27.3104 36.4084 25.9992C38.5354 25.1523 40.7055 24.8197 43 25.0111C45.8544 25.2503 48.3619 26.2863 50.6109 27.9947C51.2306 28.466 51.7713 29.0426 52.4078 29.6264H52.4102Z" fill="white"/>
</g>
<defs>
<clipPath id="clip0_8761_137172">
<rect width="36.583" height="40.0834" fill="white" transform="translate(27.417 24.9583)"/>
</clipPath>
</defs>
</svg>