<svg xmlns="http://www.w3.org/2000/svg" width="300" height="140" viewBox="0 0 300 140" fill="none">
<path fill-rule="evenodd" clip-rule="evenodd" d="M43.4857 47.8742C43.0365 47.8742 42.6726 48.238 42.6726 48.6873V73.0799C42.6726 73.5291 43.0365 73.893 43.4857 73.893H106.907C107.356 73.893 107.72 73.5291 107.72 73.0799V48.6873C107.72 48.238 107.356 47.8742 106.907 47.8742H43.4857ZM99.1822 65.7621C99.4066 65.7621 99.5888 65.58 99.5888 65.3556V56.4116C99.5888 56.1872 99.4066 56.0051 99.1822 56.0051H51.21C50.9856 56.0051 50.8035 56.1872 50.8035 56.4116V65.3556C50.8035 65.58 50.9856 65.7621 51.21 65.7621H99.1822Z" fill="white"/>
<path d="M50.8035 84.4632C50.8035 84.0139 50.4396 83.6501 49.9904 83.6501H43.4857C43.0365 83.6501 42.6726 84.0139 42.6726 84.4632V90.9679C42.6726 91.4171 43.0365 91.781 43.4857 91.781H49.9904C50.4396 91.781 50.8035 91.4171 50.8035 90.9679V84.4632Z" fill="white"/>
<path d="M200.412 84.4632C200.412 84.0139 200.048 83.6501 199.599 83.6501H193.094C192.645 83.6501 192.281 84.0139 192.281 84.4632V90.9679C192.281 91.4171 192.645 91.781 193.094 91.781H199.599C200.048 91.781 200.412 91.4171 200.412 90.9679V84.4632Z" fill="white"/>
<path d="M117.476 84.4632C117.476 84.0139 117.84 83.6501 118.289 83.6501H181.71C182.159 83.6501 182.523 84.0139 182.523 84.4632V90.9679C182.523 91.4171 182.159 91.781 181.71 91.781H118.289C117.84 91.781 117.476 91.4171 117.476 90.9679V84.4632Z" fill="white"/>
<path fill-rule="evenodd" clip-rule="evenodd" d="M192.281 48.6873C192.281 48.2381 192.645 47.8742 193.094 47.8742H256.515C256.964 47.8742 257.328 48.2381 257.328 48.6873V73.08C257.328 73.5292 256.964 73.893 256.515 73.893H193.094C192.645 73.893 192.281 73.5292 192.281 73.08V48.6873ZM248.79 56.0051C249.015 56.0051 249.197 56.1872 249.197 56.4117V65.3556C249.197 65.58 249.015 65.7622 248.79 65.7622H200.818C200.594 65.7622 200.412 65.58 200.412 65.3556V56.4117C200.412 56.1872 200.594 56.0051 200.818 56.0051H248.79Z" fill="white"/>
<path d="M118.289 47.8742C117.84 47.8742 117.476 48.2381 117.476 48.6873V55.192C117.476 55.6413 117.84 56.0051 118.289 56.0051H173.986C174.21 56.0051 174.392 56.1872 174.392 56.4117V65.3556C174.392 65.58 174.21 65.7622 173.986 65.7622H118.289C117.84 65.7622 117.476 66.126 117.476 66.5753V73.08C117.476 73.5292 117.84 73.893 118.289 73.893H181.71C182.159 73.893 182.523 73.5292 182.523 73.08V48.6873C182.523 48.2381 182.159 47.8742 181.71 47.8742H118.289Z" fill="white"/>
</svg>