<svg xmlns="http://www.w3.org/2000/svg" width="122" height="74" viewBox="0 0 122 74" fill="none">
<path d="M32.407 22.9253C33.3886 22.9198 34.4929 23.1353 35.7199 23.5716L35.2045 25.5351C34.0648 25.1315 33.1378 24.9297 32.4233 24.9297C31.8453 24.9297 31.39 25.0442 31.0573 25.2733C30.7246 25.5023 30.5584 25.8132 30.5584 26.2059C30.5584 26.6313 30.711 26.9695 31.0164 27.2204C31.3272 27.4712 31.8916 27.703 32.7096 27.9157C33.9148 28.2266 34.771 28.6576 35.2781 29.2084C35.7853 29.7538 36.0389 30.5065 36.0389 31.4664C36.0389 32.6281 35.6463 33.5199 34.861 34.1416C34.0812 34.758 32.966 35.0661 31.5153 35.0661C30.332 35.0661 29.0641 34.7989 27.7117 34.2644L28.317 32.3582C29.0641 32.6254 29.6749 32.8136 30.1493 32.9226C30.6238 33.0263 31.0737 33.0781 31.499 33.0781C32.1153 33.0781 32.5897 32.9472 32.9223 32.6854C33.2605 32.4181 33.4295 32.0499 33.4295 31.5809C33.4295 31.281 33.3586 31.0301 33.2168 30.8283C33.075 30.6264 32.8351 30.4465 32.497 30.2883C32.1589 30.1247 31.6708 29.9638 31.0328 29.8056C29.9693 29.5493 29.1923 29.1512 28.7015 28.6112C28.2106 28.0712 27.9653 27.3595 27.9653 26.4759C27.9653 25.3469 28.3525 24.4742 29.1268 23.8579C29.9067 23.2362 31 22.9253 32.407 22.9253ZM45.0863 25.0196H41.8715V34.9516H39.3112V25.0196H35.9738V23.0725H45.0863V25.0196ZM47.3525 31.9L46.3872 34.9516H43.8678L47.7205 23.0725H51.1071L55.058 34.9516H52.5795L51.5733 31.9H47.3525ZM49.3811 25.2651L47.9251 30.0101H50.9926L49.4956 25.2651H49.3811ZM56.179 23.0725H58.7393V34.9516H56.179V23.0725ZM66.2326 34.9516H63.3118L58.9765 28.603L62.944 23.0725H65.8314L61.7577 28.5703L66.2326 34.9516ZM67.2796 23.0725H69.8402V34.9516H67.2796V23.0725ZM76.3838 29.6911C75.9918 29.1347 75.3778 28.1449 74.5435 26.7214V34.9516H72.2124V23.0725H74.2411L77.8564 28.2348C78.3145 28.8838 78.9528 29.8875 79.7703 31.2455V23.0725H82.1098V34.9516H80.0652L76.3838 29.6911ZM93.6197 34.2153C92.9923 34.4934 92.3247 34.7089 91.6153 34.8616C90.9066 35.0088 90.2114 35.0824 89.5296 35.0824C87.6868 35.0824 86.2603 34.5562 85.2518 33.5035C84.2424 32.4454 83.7382 30.951 83.7382 29.0202C83.7382 27.0786 84.2592 25.5787 85.3004 24.5206C86.3474 23.457 87.8258 22.9253 89.7339 22.9253C90.4049 22.9253 91.0758 23.0071 91.7468 23.1707C92.4169 23.3289 93.02 23.5525 93.5544 23.8416L92.8013 25.6496C92.2343 25.4151 91.7384 25.246 91.3129 25.1424C90.8874 25.0333 90.4618 24.9787 90.0372 24.9787C88.8318 24.9787 87.918 25.3169 87.2964 25.9932C86.6749 26.6695 86.3642 27.6622 86.3642 28.9711C86.3642 30.2692 86.6506 31.2755 87.2227 31.99C87.8007 32.7045 88.6165 33.0617 89.6686 33.0617C90.203 33.0617 90.7265 32.9881 91.2392 32.8409V28.922H93.6197V34.2153ZM31.18 43.0607H35.5727V44.9915H31.18V50.0311H28.6197V38.152H36.2598V40.0746H31.18V43.0607ZM39.1312 46.9795L38.166 50.0311H35.6466L39.4994 38.152H42.8858L46.8368 50.0311H44.3583L43.3521 46.9795H39.1312ZM41.1599 40.3446L39.7038 45.0896H42.7713L41.2744 40.3446H41.1599ZM52.5386 38.0048C53.1657 38.0048 53.7901 38.0866 54.4118 38.2502C55.0389 38.4084 55.6006 38.632 56.0968 38.9211L55.3361 40.6964C54.8671 40.4728 54.4336 40.3118 54.0355 40.2137C53.6428 40.11 53.2448 40.0582 52.8412 40.0582C51.7124 40.0582 50.8535 40.3991 50.2645 41.0809C49.681 41.7626 49.3893 42.7525 49.3893 44.0506C49.3893 45.3705 49.681 46.3714 50.2645 47.0531C50.8535 47.7294 51.7124 48.0676 52.8412 48.0676C53.7138 48.0676 54.6245 47.8685 55.5733 47.4703L56.195 49.3439C54.968 49.8892 53.7383 50.1619 52.5058 50.1619C50.6517 50.1619 49.2311 49.6411 48.2441 48.5994C47.257 47.5522 46.7635 46.0523 46.7635 44.0997C46.7635 42.8398 46.9926 41.7518 47.4507 40.8354C47.9087 39.9192 48.5686 39.2183 49.4301 38.7329C50.2973 38.2475 51.3334 38.0048 52.5386 38.0048ZM57.4714 38.152H60.0318V50.0311H57.4714V38.152ZM69.8402 50.0311H62.4046V38.152H64.8505V48.084H69.8402V50.0311ZM70.9853 38.152H73.5459V50.0311H70.9853V38.152ZM83.7876 40.0991H80.5728V50.0311H78.0122V40.0991H74.675V38.152H83.7876V40.0991ZM84.9251 38.152H87.4849V50.0311H84.9251V38.152ZM92.4177 42.9789H97.0967V44.836H92.4177V48.1412H97.7677V50.0311H89.8579V38.152H97.5959V40.0419H92.4177V42.9789ZM103.142 38.0048C104.124 37.9993 105.228 38.2148 106.455 38.6511L105.94 40.6145C104.8 40.211 103.873 40.0092 103.159 40.0092C102.581 40.0092 102.125 40.1237 101.792 40.3527C101.46 40.5818 101.293 40.8927 101.293 41.2854C101.293 41.7108 101.447 42.049 101.751 42.2999C102.062 42.5507 102.627 42.7825 103.445 42.9952C104.65 43.3061 105.507 43.7371 106.013 44.2879C106.521 44.8333 106.774 45.586 106.774 46.5459C106.774 47.7076 106.382 48.5994 105.596 49.2211C104.816 49.8375 103.701 50.1456 102.251 50.1456C101.067 50.1456 99.7989 49.8783 98.447 49.3439L99.0526 47.4377C99.7989 47.7049 100.41 47.893 100.884 48.0021C101.359 48.1058 101.809 48.1576 102.234 48.1576C102.85 48.1576 103.324 48.0267 103.658 47.7649C103.995 47.4976 104.165 47.1294 104.165 46.6604C104.165 46.3605 104.093 46.1096 103.952 45.9078C103.81 45.7059 103.57 45.526 103.232 45.3678C102.894 45.2042 102.406 45.0433 101.768 44.8851C100.704 44.6288 99.9271 44.2307 99.437 43.6906C98.9462 43.1507 98.7008 42.439 98.7008 41.5554C98.7008 40.4264 99.0878 39.5538 99.8617 38.9374C100.642 38.3156 101.736 38.0048 103.142 38.0048Z" fill="white"/>
<path d="M18.8856 27.3967V25.1934L4.28199 18.1768L-21.7427 23.5619V26.0096L4.03716 21.93L18.8856 27.3967Z" fill="white"/>
<path d="M18.8855 28.3758V30.6603L2.07897 27.3965L-21.7428 30.0892V27.3965L2.73173 23.6432L18.8855 28.3758Z" fill="white"/>
<path d="M18.8855 31.7211V34.0872L0.529855 32.9043L-21.7428 34.0872V31.2315L0.773941 29.192L18.8855 31.7211Z" fill="white"/>
<path d="M18.8855 35.3112V37.7589L-1.46119 38.4118L-21.7428 37.7589V35.3112L-1.02102 34.7402L18.8855 35.3112Z" fill="white"/>
<path d="M18.8855 39.0637V41.5402L-3.40633 44.1467L-21.7428 41.2792V39.0639L-3.211 40.4323L18.8855 39.0637Z" fill="white"/>
<path d="M18.8855 43.0388V45.5802L-5.29611 49.5555L-21.7428 44.7985V42.4528L-5.10069 46.0045L18.8855 43.0388Z" fill="white"/>
<path d="M-21.7428 45.6461V47.8613L-7.05521 55.0297L18.8855 49.5554V47.0139L-6.85996 51.315L-21.7428 45.6461Z" fill="white"/>
</svg>